<?xml version="1.0" standalone="no"?>
<!DOCTYPE svg PUBLIC "-//W3C//DTD SVG 20010904//EN"
 "http://www.w3.org/TR/2001/REC-SVG-20010904/DTD/svg10.dtd">
<svg version="1.0" xmlns="http://www.w3.org/2000/svg"
 width="720.000000pt" height="720.000000pt" viewBox="0 0 720.000000 720.000000"
 preserveAspectRatio="xMidYMid meet">
<metadata>
Created by potrace 1.15, written by Peter Selinger 2001-2017
</metadata>
<g transform="translate(0.000000,720.000000) scale(0.100000,-0.100000)"
fill="#000000" stroke="none">
<path d="M220 6995 c-18 -19 -37 -32 -42 -29 -5 4 -6 -1391 -3 -3363 l6 -3368
36 -33 36 -32 3347 0 3347 0 39 34 39 34 3 443 c2 244 1 1759 -3 3367 l-7
2923 -52 29 -51 30 -3331 0 -3330 0 -34 -35z m6570 -205 c0 -16 -7 -20 -32
-21 -24 -1 -27 -3 -10 -6 l22 -4 -2 -1510 c-2 -830 0 -1509 4 -1509 5 0 9 681
11 1513 l2 1512 3 -1516 c2 -1375 1 -1517 -14 -1523 -17 -6 -804 -9 -804 -2 0
2 19 41 41 87 117 236 159 463 120 644 -50 231 -244 438 -543 580 l-95 45
-144 0 c-276 -1 -456 -66 -631 -229 -41 -39 -77 -68 -80 -66 -3 3 -13 -5 -24
-17 -15 -18 -16 -20 -1 -9 10 8 17 9 17 3 0 -12 -18 -25 -38 -28 -8 -2 -15 -4
-15 -6 -1 -2 -14 -27 -28 -55 -15 -29 -24 -53 -20 -53 4 0 19 25 34 56 16 31
30 54 33 51 3 -3 -1 -16 -9 -29 -9 -12 -28 -52 -43 -88 -119 -284 -108 -570
31 -814 l42 -74 -141 -6 c-78 -3 -266 -9 -418 -12 l-278 -6 0 513 c-1 283 -5
534 -9 558 -11 53 -26 66 -98 82 -52 12 -54 12 -83 -16 -17 -16 -30 -25 -30
-20 0 5 -13 -4 -30 -20 -16 -15 -28 -32 -27 -38 4 -18 -115 -106 -197 -146
-97 -47 -174 -68 -281 -76 l-80 -7 -95 47 c-358 176 -479 428 -370 770 31 94
36 104 104 173 87 91 213 176 309 210 57 20 91 26 162 25 164 0 300 -68 470
-236 96 -95 101 -98 135 -92 19 4 50 14 68 22 l32 15 0 664 0 663 198 3 c108
2 505 5 881 6 377 1 687 4 689 7 3 3 288 5 634 5 621 0 628 0 628 -20z m-1335
-1970 c39 -12 95 -35 126 -50 62 -32 169 -115 169 -132 0 -7 -15 1 -32 18 -27
24 -30 25 -13 4 11 -14 21 -26 21 -28 1 -2 8 -4 16 -6 20 -3 38 -16 38 -27 0
-6 -4 -7 -10 -4 -5 3 -10 1 -10 -5 0 -6 8 -10 18 -8 12 2 29 -19 62 -82 l45
-85 3 -130 c4 -147 -9 -218 -60 -320 -35 -70 -76 -127 -87 -121 -4 3 -21 -8
-36 -24 -16 -17 -25 -30 -20 -30 16 0 -28 -40 -86 -77 -62 -40 -69 -52 -69
-125 0 -54 12 -69 75 -93 41 -16 82 -17 577 -6 293 6 550 11 571 11 l37 0 0
-1522 c0 -838 -3 -1533 -6 -1544 -5 -20 -15 -22 -97 -28 -51 -3 -725 -9 -1498
-12 l-1406 -7 -5 334 c-4 310 0 450 13 464 3 3 40 -10 81 -30 176 -81 362
-121 511 -111 276 20 493 184 656 496 42 80 53 113 62 181 15 109 6 283 -20
384 -25 97 -87 225 -141 294 -43 54 -52 75 -20 46 11 -10 20 -13 20 -8 0 10
-33 29 -36 21 -1 -2 -31 25 -68 60 -37 34 -94 76 -127 93 -84 42 -250 96 -339
110 -158 24 -347 -6 -507 -81 l-83 -39 -2 302 c-4 396 -3 494 6 540 l7 37 601
0 601 0 43 43 43 43 -15 60 c-11 42 -24 66 -45 82 -16 13 -27 27 -24 31 2 4
-10 21 -28 37 l-32 29 29 -32 c55 -61 12 -33 -61 39 -70 70 -102 117 -45 67
l27 -24 -24 27 c-13 15 -28 25 -32 22 -12 -7 -84 107 -110 175 -14 36 -24 88
-27 143 -6 114 25 220 97 328 55 83 176 220 194 220 7 0 26 7 42 16 108 58
135 65 250 60 74 -3 133 -12 180 -26z m-4229 -1382 c-47 -82 -107 -239 -131
-341 -44 -189 -23 -382 56 -524 31 -56 35 -68 19 -58 -5 3 -10 1 -10 -5 0 -7
6 -10 14 -7 7 3 19 0 25 -6 15 -15 14 -30 -1 -21 -8 4 -10 3 -5 -2 5 -5 12 -9
16 -9 4 0 39 -32 78 -72 126 -126 318 -247 419 -263 91 -16 299 -13 383 5 244
51 476 224 567 421 136 298 132 574 -12 842 l-44 82 432 0 c238 0 450 -3 471
-6 l37 -7 0 -598 c0 -595 0 -599 22 -643 19 -41 26 -46 65 -52 23 -3 54 -3 68
0 15 4 72 53 128 110 83 83 116 110 177 139 198 96 371 91 565 -18 65 -36 195
-148 195 -168 0 -5 -10 -2 -23 9 l-22 19 19 -22 c10 -12 23 -21 28 -20 6 1 13
-4 16 -12 3 -9 0 -11 -8 -6 -9 5 -11 4 -6 -4 4 -6 12 -9 17 -6 14 9 66 -110
85 -193 19 -87 14 -167 -17 -269 -26 -83 -77 -186 -88 -178 -5 2 -15 -3 -22
-13 -13 -15 -12 -16 4 -3 9 7 17 9 17 4 0 -16 -22 -32 -36 -26 -8 3 -14 0 -14
-7 0 -6 4 -8 10 -5 6 3 10 2 10 -4 0 -22 -122 -116 -205 -157 -87 -43 -95 -45
-200 -51 -133 -6 -224 10 -328 61 -74 36 -161 102 -152 116 3 4 -3 14 -13 21
-16 13 -16 12 -3 -6 7 -11 -14 9 -48 45 l-61 64 -71 3 c-75 2 -99 -3 -99 -19
0 -6 6 -5 15 2 9 8 15 9 15 2 0 -12 -19 -27 -34 -27 -5 0 -11 -7 -13 -15 -3
-10 -2 -11 4 -3 9 13 7 -890 -3 -1034 l-6 -93 -1553 0 -1553 0 -7 27 c-7 30
-10 304 -21 1941 l-7 1102 432 0 432 0 -25 -42z m1260 -658 c-75 -184 -182
-307 -332 -381 l-88 -44 -120 1 c-101 1 -134 6 -201 27 -91 30 -183 82 -238
135 -36 34 -114 137 -131 172 -10 19 6 0 63 -79 99 -138 271 -222 482 -238 72
-5 96 -2 152 16 72 24 162 78 227 137 76 69 162 205 191 304 8 25 15 38 17 29
2 -9 -8 -45 -22 -79z"/>
<path d="M6772 2003 c-1 -804 -5 -1470 -8 -1480 -5 -16 -4 -16 5 -1 8 11 10
446 8 1480 l-2 1463 -3 -1462z"/>
<path d="M453 428 c-2 -5 688 -7 1534 -6 846 2 1291 4 988 5 -1458 7 -2517 7
-2522 1z"/>
<path d="M155 4625 c0 -545 1 -766 2 -492 2 274 2 720 0 990 -1 271 -2 47 -2
-498z"/>
</g>
</svg>
